REM MD5 c376b24319ff80ebb6ebfd5eac7976a0
FILE "Official U.S. PlayStation Magazine Demo Disc 33 (USA).bin" BINARY
  TRACK 01 MODE2/2352
    INDEX 01 00:00:00
  TRACK 02 AUDIO
    INDEX 00 31:14:24
    INDEX 01 31:16:24
  TRACK 03 AUDIO
    INDEX 00 32:59:54
    INDEX 01 33:01:54
  TRACK 04 AUDIO
    INDEX 00 34:46:40
    INDEX 01 34:48:40
  TRACK 05 AUDIO
    INDEX 00 38:05:40
    INDEX 01 38:07:40
REM LEADOUT 38:13:36
